<svg width="32" height="32" viewBox="0 0 32 32" fill="none" xmlns="http://www.w3.org/2000/svg">
<path d="M10.9294 7.23666L8.83608 15.59C8.64275 16.3607 8.99608 17.37 9.62675 17.8527L12.3501 19.9373C12.9807 20.42 13.6441 20.188 13.8367 19.4173L15.9347 11.0467C16.2621 9.73933 16.7081 9.21333 18.2194 9.21333H26.8341C27.6621 9.21333 28.0694 8.59933 27.7474 7.836L26.5701 5.044C26.2481 4.28 25.3221 3.66666 24.4934 3.66666H16.2234C13.8361 3.66666 11.5967 4.57333 10.9301 7.23666H10.9294Z" fill="#0181FC" stroke="#0181FC" stroke-width="0.5" stroke-linecap="round" stroke-linejoin="round"/>
<path d="M21.0708 24.7633L23.1641 16.41C23.3574 15.6393 23.0041 14.63 22.3734 14.1473L19.6501 12.0627C19.0194 11.58 18.3561 11.812 18.1634 12.5827L16.0648 20.9533C15.7374 22.2607 15.2914 22.7867 13.7801 22.7867H5.16611C4.33811 22.7867 3.93078 23.4007 4.25278 24.164L5.43011 26.956C5.75211 27.7193 6.67811 28.3333 7.50611 28.3333H15.7768C18.1641 28.3333 20.4034 27.4267 21.0701 24.7633H21.0708Z" fill="#0181FC" stroke="#0181FC" stroke-width="0.5" stroke-linecap="round" stroke-linejoin="round"/>
</svg>
